<svg width="1777" height="367" viewBox="0 0 1777 367" fill="none" xmlns="http://www.w3.org/2000/svg">
<path d="M448.578 277.091V93.6913H483.686L561.762 223.119H543.16L619.926 93.6913H654.772L655.296 277.091H615.472L615.21 154.737H622.546L561.238 257.703H542.112L479.494 154.737H488.402V277.091H448.578ZM742.057 277.091L682.059 93.6913H726.075L778.213 256.131H756.205L810.701 93.6913H850.001L902.401 256.131H881.179L934.627 93.6913H975.237L915.239 277.091H869.651L823.277 134.563H835.329L787.645 277.091H742.057ZM1085.96 280.235C1071.47 280.235 1058.02 277.877 1045.62 273.161C1033.39 268.445 1022.74 261.808 1013.65 253.249C1004.74 244.691 997.758 234.647 992.693 223.119C987.802 211.591 985.357 199.015 985.357 185.391C985.357 171.767 987.802 159.191 992.693 147.663C997.758 136.135 1004.83 126.092 1013.91 117.533C1023 108.975 1033.65 102.337 1045.88 97.6213C1058.11 92.9053 1071.38 90.5473 1085.7 90.5473C1100.2 90.5473 1113.47 92.9053 1125.53 97.6213C1137.75 102.337 1148.32 108.975 1157.23 117.533C1166.31 126.092 1173.39 136.135 1178.45 147.663C1183.52 159.017 1186.05 171.593 1186.05 185.391C1186.05 199.015 1183.52 211.679 1178.45 223.381C1173.39 234.909 1166.31 244.953 1157.23 253.511C1148.32 261.895 1137.75 268.445 1125.53 273.161C1113.47 277.877 1100.29 280.235 1085.96 280.235ZM1085.7 244.079C1093.91 244.079 1101.42 242.682 1108.23 239.887C1115.22 237.093 1121.33 233.075 1126.57 227.835C1131.81 222.595 1135.83 216.395 1138.63 209.233C1141.6 202.072 1143.08 194.125 1143.08 185.391C1143.08 176.658 1141.6 168.711 1138.63 161.549C1135.83 154.388 1131.81 148.187 1126.57 142.947C1121.51 137.707 1115.48 133.69 1108.5 130.895C1101.51 128.101 1093.91 126.703 1085.7 126.703C1077.49 126.703 1069.9 128.101 1062.91 130.895C1056.1 133.69 1050.07 137.707 1044.83 142.947C1039.59 148.187 1035.49 154.388 1032.52 161.549C1029.72 168.711 1028.32 176.658 1028.32 185.391C1028.32 193.95 1029.72 201.897 1032.52 209.233C1035.49 216.395 1039.5 222.595 1044.57 227.835C1049.81 233.075 1055.92 237.093 1062.91 239.887C1069.9 242.682 1077.49 244.079 1085.7 244.079ZM1217.95 277.091V93.6913H1253.06L1361.26 225.739H1344.23V93.6913H1386.15V277.091H1351.31L1242.84 145.043H1259.87V277.091H1217.95ZM1475.13 277.091V202.159L1484.82 227.835L1404.13 93.6913H1449.19L1511.02 196.657H1485.09L1547.18 93.6913H1588.84L1508.14 227.835L1517.57 202.159V277.091H1475.13ZM1571.24 277.091L1652.98 93.6913H1694.9L1776.91 277.091H1732.37L1665.29 115.175H1682.06L1614.73 277.091H1571.24ZM1612.11 237.791L1623.37 205.565H1717.69L1729.22 237.791H1612.11Z" fill="black"/>
<path d="M14.979 1.22496C1.38682 6.00759 0 11.797 0 58.617V102.164L17.4754 86.306C28.0165 76.4888 42.1631 66.9238 54.091 61.134C71.8437 52.8273 79.6107 50.3103 103.744 45.2757C111.233 43.7654 108.736 42.2553 71.2892 22.6211C25.7973 -0.788803 23.3006 -1.79569 14.979 1.22496Z" fill="black"/>
<path d="M94.5919 73.2158C32.4569 88.3192 -8.31941 144.704 2.22131 200.838C11.93 251.181 52.1515 287.682 107.352 296.239C122.608 298.504 132.04 298.504 145.632 296.491C247.157 280.631 287.655 170.631 216.366 104.177C184.744 74.7262 137.587 62.6438 94.5919 73.2158ZM161.998 96.1225C246.324 126.077 252.704 229.785 172.538 266.535C110.958 294.729 36.3402 260.243 25.2447 198.572C13.0396 129.097 90.7087 70.9505 161.998 96.1225Z" fill="black"/>
<path d="M107.358 118.023C88.7729 122.554 72.4067 133.63 62.4208 148.229C55.7637 158.298 54.0993 163.836 53.267 178.939C51.8801 200.587 55.2089 210.907 67.9687 226.01C92.9337 255.713 143.973 259.489 176.983 234.065C208.328 210.152 208.882 160.312 178.369 134.133C161.171 119.281 130.381 112.233 107.358 118.023ZM149.798 142.188C155.624 144.957 163.945 151.25 168.384 156.536C175.318 164.591 176.15 167.863 176.15 183.721C176.15 199.58 175.318 202.852 168.384 210.907C144.528 239.352 97.372 235.576 80.451 203.859C59.0921 164.088 106.248 122.05 149.798 142.188Z" fill="black"/>
<path d="M272.662 139.169C280.985 160.061 280.985 207.636 272.385 228.781L266.284 243.38L272.662 239.604C275.991 237.591 294.854 227.774 314.273 217.705C350.333 199.078 357.823 193.288 357.823 183.471C357.823 174.157 349.776 168.368 307.336 146.217L266.837 125.072L272.662 139.169Z" fill="black"/>
<path d="M0 309.333C0 351.871 0.277246 353.633 6.37994 360.179C16.6434 371.002 24.6877 369.24 69.9021 345.832C92.3707 334.25 110.679 323.932 110.956 323.176C110.956 322.42 104.299 320.911 96.5315 320.155C73.2309 317.638 39.3892 301.025 18.0302 281.642L0 265.281V309.333Z" fill="black"/>
<path d="M126.213 202.601C137.703 202.601 147.018 194.149 147.018 183.722C147.018 173.296 137.703 164.844 126.213 164.844C114.724 164.844 105.409 173.296 105.409 183.722C105.409 194.149 114.724 202.601 126.213 202.601Z" fill="black"/>
</svg>
