<svg width="358" height="368" viewBox="0 0 358 368" fill="none" xmlns="http://www.w3.org/2000/svg">
<path d="M15.147 2.13365C1.55479 6.91629 0.167969 12.7057 0.167969 59.5257V103.073L17.6434 87.2146C28.1844 77.3975 42.3311 67.8325 54.259 62.0427C72.0116 53.736 79.7787 51.219 103.912 46.1844C111.401 44.674 108.904 43.164 71.4572 23.5298C25.9653 0.119889 23.4686 -0.886996 15.147 2.13365Z" fill="black"/>
<path d="M94.7599 74.1245C32.6249 89.2279 -8.15144 145.613 2.38928 201.746C12.098 252.09 52.3195 288.59 107.52 297.147C122.776 299.413 132.208 299.413 145.8 297.399C247.325 281.54 287.823 171.54 216.534 105.086C184.912 75.6348 137.755 63.5525 94.7599 74.1245ZM162.166 97.0311C246.492 126.986 252.872 230.694 172.706 267.444C111.126 295.638 36.5081 261.152 25.4126 199.481C13.2075 130.006 90.8767 71.8592 162.166 97.0311Z" fill="black"/>
<path d="M107.526 118.932C88.9409 123.462 72.5747 134.538 62.5888 149.138C55.9316 159.207 54.2673 164.744 53.4349 179.848C52.0481 201.495 55.3768 211.816 68.1367 226.919C93.1016 256.622 144.141 260.398 177.151 234.974C208.496 211.061 209.05 161.22 178.537 135.042C161.339 120.19 130.549 113.142 107.526 118.932ZM149.966 143.097C155.792 145.865 164.113 152.158 168.552 157.445C175.486 165.5 176.318 168.772 176.318 184.63C176.318 200.489 175.486 203.761 168.552 211.816C144.696 240.26 97.54 236.484 80.619 204.768C59.2601 164.996 106.416 122.959 149.966 143.097Z" fill="black"/>
<path d="M272.83 140.077C281.153 160.97 281.153 208.545 272.553 229.689L266.452 244.289L272.83 240.513C276.159 238.499 295.022 228.682 314.441 218.614C350.501 199.986 357.991 194.197 357.991 184.38C357.991 175.066 349.944 169.277 307.504 147.125L267.005 125.981L272.83 140.077Z" fill="black"/>
<path d="M0.167969 310.241C0.167969 352.78 0.445215 354.541 6.54791 361.088C16.8114 371.91 24.8557 370.149 70.0701 346.74C92.5387 335.159 110.846 324.841 111.124 324.085C111.124 323.329 104.467 321.82 96.6995 321.064C73.3988 318.546 39.5572 301.933 18.1982 282.551L0.167969 266.19V310.241Z" fill="black"/>
<path d="M126.381 203.51C137.871 203.51 147.186 195.058 147.186 184.631C147.186 174.205 137.871 165.752 126.381 165.752C114.891 165.752 105.577 174.205 105.577 184.631C105.577 195.058 114.891 203.51 126.381 203.51Z" fill="black"/>
</svg>
